<svg xmlns="http://www.w3.org/2000/svg" viewBox="0 0 320 240" role="img" aria-labelledby="title desc">
  <title id="title">Cash-secured put strategy thumbnail</title>
  <desc id="desc">A simplified cash reserve block connected to a possible assignment marker.</desc>
  <defs>
    <linearGradient id="paper" x1="0" x2="1" y1="0" y2="1">
      <stop offset="0" stop-color="#fbfcf8"/>
      <stop offset="1" stop-color="#eef3ec"/>
    </linearGradient>
    <filter id="shadow" x="-20%" y="-20%" width="140%" height="140%">
      <feDropShadow dx="0" dy="8" stdDeviation="10" flood-color="#121512" flood-opacity=".08"/>
    </filter>
  </defs>
  <rect width="320" height="240" rx="24" fill="url(#paper)"/>
  <path d="M54 62h212M54 120h212M54 178h212" stroke="#d9ded6" stroke-width="2"/>
  <rect x="52" y="62" width="112" height="104" rx="18" fill="#dff3ea" stroke="#98dfc5" stroke-width="2" filter="url(#shadow)"/>
  <circle cx="108" cy="114" r="31" fill="#09a66d"/>
  <path d="M99 114h18M108 96v36" stroke="#fff" stroke-width="8" stroke-linecap="round"/>
  <rect x="210" y="68" width="62" height="58" rx="15" fill="#fff6e8" stroke="#edc27d" stroke-width="2"/>
  <circle cx="241" cy="97" r="19" fill="#c87900"/>
  <path d="M165 114h50" stroke="#5d655e" stroke-width="8" stroke-linecap="round"/>
  <path d="M205 92l27 22-27 22" fill="none" stroke="#5d655e" stroke-width="8" stroke-linecap="round" stroke-linejoin="round"/>
  <rect x="204" y="154" width="76" height="34" rx="13" fill="#fff" stroke="#d9ded6" stroke-width="2"/>
  <g fill="#121512">
    <circle cx="226" cy="171" r="6"/>
    <circle cx="244" cy="171" r="6"/>
    <circle cx="262" cy="171" r="6"/>
  </g>
</svg>
