<svg xmlns="http://www.w3.org/2000/svg" viewBox="0 0 320 240" role="img" aria-labelledby="title desc">
  <title id="title">Covered call strategy thumbnail</title>
  <desc id="desc">A simplified owned-stock block with a copper cap over the upside line.</desc>
  <defs>
    <linearGradient id="paper" x1="0" x2="1" y1="0" y2="1">
      <stop offset="0" stop-color="#fbfcf8"/>
      <stop offset="1" stop-color="#eef3ec"/>
    </linearGradient>
    <filter id="shadow" x="-20%" y="-20%" width="140%" height="140%">
      <feDropShadow dx="0" dy="8" stdDeviation="10" flood-color="#121512" flood-opacity=".08"/>
    </filter>
  </defs>
  <rect width="320" height="240" rx="24" fill="url(#paper)"/>
  <path d="M54 62h212M54 120h212M54 178h212" stroke="#d9ded6" stroke-width="2"/>
  <rect x="56" y="126" width="104" height="52" rx="15" fill="#fff" stroke="#d9ded6" stroke-width="2" filter="url(#shadow)"/>
  <g fill="#09a66d">
    <circle cx="86" cy="152" r="9"/>
    <circle cx="110" cy="152" r="9"/>
    <circle cx="134" cy="152" r="9"/>
  </g>
  <path d="M72 174c42-7 78-21 108-42 20-14 37-31 54-52" fill="none" stroke="#09a66d" stroke-width="14" stroke-linecap="round"/>
  <path d="M220 80h54" stroke="#c87900" stroke-width="15" stroke-linecap="round"/>
  <path d="M274 54v74" stroke="#c87900" stroke-width="10" stroke-linecap="round"/>
  <circle cx="98" cy="198" r="13" fill="#09a66d"/>
  <circle cx="238" cy="80" r="10" fill="#fff6e8" stroke="#edc27d" stroke-width="3"/>
</svg>
