<svg xmlns="http://www.w3.org/2000/svg" viewBox="0 0 320 240" role="img" aria-labelledby="title desc">
  <title id="title">Long put strategy thumbnail</title>
  <desc id="desc">A simplified blue downside curve with a small premium-risk marker.</desc>
  <defs>
    <linearGradient id="paper" x1="0" x2="1" y1="0" y2="1">
      <stop offset="0" stop-color="#fbfcf8"/>
      <stop offset="1" stop-color="#eef3ec"/>
    </linearGradient>
    <filter id="shadow" x="-20%" y="-20%" width="140%" height="140%">
      <feDropShadow dx="0" dy="8" stdDeviation="10" flood-color="#121512" flood-opacity=".08"/>
    </filter>
  </defs>
  <rect width="320" height="240" rx="24" fill="url(#paper)"/>
  <path d="M54 58h212M54 112h212M54 166h212" stroke="#d9ded6" stroke-width="2"/>
  <path d="M84 42v156M160 42v156M236 42v156" stroke="#d9ded6" stroke-width="2"/>
  <rect x="190" y="54" width="78" height="58" rx="15" fill="#fff" stroke="#d9ded6" stroke-width="2" filter="url(#shadow)"/>
  <circle cx="229" cy="83" r="20" fill="#eaf0ff" stroke="#99b5ff" stroke-width="2"/>
  <path d="M248 72c-35 34-68 58-100 74-26 13-52 20-80 22" fill="none" stroke="#2357ff" stroke-width="15" stroke-linecap="round"/>
  <path d="M72 168l31-17 1 35" fill="none" stroke="#2357ff" stroke-width="15" stroke-linecap="round" stroke-linejoin="round"/>
  <rect x="184" y="158" width="82" height="26" rx="13" fill="#eef1ea" stroke="#d9ded6" stroke-width="2"/>
  <circle cx="150" cy="144" r="13" fill="#09a66d"/>
</svg>
