<svg xmlns="http://www.w3.org/2000/svg" viewBox="0 0 320 240" role="img" aria-labelledby="title desc">
  <title id="title">Protective put strategy thumbnail</title>
  <desc id="desc">A simplified stock exposure curve with a blue downside floor.</desc>
  <defs>
    <linearGradient id="paper" x1="0" x2="1" y1="0" y2="1">
      <stop offset="0" stop-color="#fbfcf8"/>
      <stop offset="1" stop-color="#eef3ec"/>
    </linearGradient>
    <filter id="shadow" x="-20%" y="-20%" width="140%" height="140%">
      <feDropShadow dx="0" dy="8" stdDeviation="10" flood-color="#121512" flood-opacity=".08"/>
    </filter>
  </defs>
  <rect width="320" height="240" rx="24" fill="url(#paper)"/>
  <path d="M54 62h212M54 120h212M54 178h212" stroke="#d9ded6" stroke-width="2"/>
  <rect x="52" y="58" width="98" height="54" rx="15" fill="#fff" stroke="#d9ded6" stroke-width="2" filter="url(#shadow)"/>
  <g fill="#09a66d">
    <circle cx="82" cy="85" r="9"/>
    <circle cx="106" cy="85" r="9"/>
    <circle cx="130" cy="85" r="9"/>
  </g>
  <rect x="204" y="58" width="64" height="54" rx="15" fill="#eaf0ff" stroke="#99b5ff" stroke-width="2"/>
  <circle cx="236" cy="85" r="19" fill="#2357ff"/>
  <path d="M68 156c34-28 68-38 102-29 29 7 57 25 86 29" fill="none" stroke="#09a66d" stroke-width="14" stroke-linecap="round"/>
  <path d="M62 174h196" stroke="#2357ff" stroke-width="15" stroke-linecap="round"/>
  <circle cx="258" cy="174" r="11" fill="#eaf0ff" stroke="#99b5ff" stroke-width="3"/>
</svg>
